<?xml version="1.0" encoding="UTF-8" standalone="no"?>
<!-- Created with Inkscape (http://www.inkscape.org/) -->

<svg
   version="1.1"
   id="svg1"
   width="2865.0098"
   height="2563.2192"
   viewBox="0 0 2865.0099 2563.2192"
   sodipodi:docname="b1.svg"
   inkscape:version="1.3.2 (091e20e, 2023-11-25, custom)"
   xmlns:inkscape="http://www.inkscape.org/namespaces/inkscape"
   xmlns:sodipodi="http://sodipodi.sourceforge.net/DTD/sodipodi-0.dtd"
   xmlns:xlink="http://www.w3.org/1999/xlink"
   xmlns="http://www.w3.org/2000/svg"
   xmlns:svg="http://www.w3.org/2000/svg"
   xmlns:rdf="http://www.w3.org/1999/02/22-rdf-syntax-ns#"
   xmlns:cc="http://creativecommons.org/ns#"
   xmlns:dc="http://purl.org/dc/elements/1.1/">
  <defs
     id="defs1">
    <color-profile
       name="ACER-S271HL"
       xlink:href="file:///Windows/system32/spool/drivers/color/ACER_S271HL.icm"
       id="color-profile1" />
    <inkscape:path-effect
       effect="fillet_chamfer"
       id="path-effect3"
       is_visible="true"
       lpeversion="1"
       nodesatellites_param="F,0,0,1,0,0,0,1 @ F,0,0,1,0,0,0,1 @ F,0,0,1,0,0,0,1 @ F,0,0,1,0,0,0,1 @ F,0,0,1,0,0,0,1 @ F,0,0,1,0,0,0,1 @ F,0,0,1,0,0,0,1 @ F,0,0,1,0,0,0,1 @ F,0,0,1,0,0,0,1 @ F,0,0,1,0,0,0,1 @ F,0,0,1,0,0,0,1 @ F,0,0,1,0,0,0,1 @ F,0,0,1,0,0,0,1 @ F,0,0,1,0,0,0,1 @ F,0,0,1,0,0,0,1 @ F,0,0,1,0,0,0,1"
       radius="0"
       unit="px"
       method="auto"
       mode="F"
       chamfer_steps="1"
       flexible="false"
       use_knot_distance="true"
       apply_no_radius="true"
       apply_with_radius="true"
       only_selected="false"
       hide_knots="false" />
    <inkscape:path-effect
       effect="fillet_chamfer"
       id="path-effect2"
       is_visible="true"
       lpeversion="1"
       nodesatellites_param="F,0,0,1,0,0,0,1 @ F,0,0,1,0,0,0,1 @ F,0,0,1,0,0,0,1 @ F,0,0,1,0,0,0,1 @ F,0,0,1,0,0,0,1 @ F,0,0,1,0,0,0,1 @ F,0,0,1,0,6.6733806,0,1 @ F,0,0,1,0,5.1094892,0,1 @ F,0,0,1,0,0,0,1 @ F,0,0,1,0,5.1094892,0,1 @ F,0,0,1,0,0,0,1 @ F,0,0,1,0,0,0,1 @ F,0,0,1,0,0,0,1 @ F,0,0,1,0,0,0,1 @ F,0,0,1,0,0,0,1 @ F,0,0,1,0,0,0,1"
       radius="0"
       unit="px"
       method="auto"
       mode="F"
       chamfer_steps="1"
       flexible="false"
       use_knot_distance="true"
       apply_no_radius="true"
       apply_with_radius="true"
       only_selected="false"
       hide_knots="false" />
  </defs>
  <sodipodi:namedview
     id="namedview1"
     pagecolor="#505050"
     bordercolor="#eeeeee"
     borderopacity="1"
     inkscape:showpageshadow="0"
     inkscape:pageopacity="0"
     inkscape:pagecheckerboard="0"
     inkscape:deskcolor="#505050"
     inkscape:zoom="0.10629907"
     inkscape:cx="1392.2982"
     inkscape:cy="1453.4464"
     inkscape:window-width="1920"
     inkscape:window-height="1017"
     inkscape:window-x="-8"
     inkscape:window-y="-8"
     inkscape:window-maximized="1"
     inkscape:current-layer="layer6"
     inkscape:document-units="px">
    <inkscape:page
       x="0"
       y="0"
       width="2865.01"
       height="2563.2192"
       id="page21"
       margin="0 0 0"
       bleed="0"
       inkscape:export-filename="b1.svg"
       inkscape:export-xdpi="300"
       inkscape:export-ydpi="300" />
  </sodipodi:namedview>
  <g
     inkscape:groupmode="layer"
     id="layer6"
     inkscape:label="ALL IMAGE"
     transform="matrix(2.1132672,0,0,2.1132672,244.59253,-2515.5895)">
    <g
       inkscape:groupmode="layer"
       id="layer2"
       inkscape:label="YELLOW"
       transform="matrix(1.06667,0,0,1.06667,-185.64,-36.3754)">
      <path
         style="fill:#aa8206;fill-opacity:1"
         d="m 552.87255,1877.7764 -11.64109,49.9128 189.58344,132.6764 242.79985,-155.1272 -51.55339,-94.6925 z"
         id="path19" />
      <path
         style="fill:#eab308;fill-opacity:1"
         d="m 694.60043,1510.0964 c 0,0 -8.68687,13.0649 -7.02386,18.0539 1.66302,4.9891 15.38287,24.9453 55.71093,26.4003 18.35663,0.6623 58.53394,-7.5265 56.54243,-13.9277 -2.91028,-9.3544 -9.51507,-32.3878 -8.69372,-31.8771 67.46011,41.94 105.14845,70.1264 110.13749,87.588 4.98904,17.4617 36.58628,150.0869 36.58628,150.0869 l 80.65612,-126.8047 c 0,0 8.0519,15.6872 27.4397,20.7877 19.3878,5.1005 27.4777,-2.1241 30.9553,-5.2719 3.4776,-3.1478 -22.4634,61.2107 -23.8875,79.6917 -1.424,18.481 -54.87941,129.7149 -54.87941,129.7149 l -99.36501,40.3281 -78.9931,-12.4726 -206.21357,-25.7767 12.4726,-276.8916 z"
         id="path2"
         sodipodi:nodetypes="cssssscczzzcccccc" />
      <ellipse
         style="fill:#eab308;fill-opacity:1"
         id="path7"
         cx="348.96237"
         cy="1399.9535"
         rx="97.601982"
         ry="100.5418" />
      <ellipse
         style="fill:#eab308;fill-opacity:1"
         id="path8"
         cx="397.02841"
         cy="1715.1021"
         rx="28.957214"
         ry="29.104206" />
      <circle
         style="fill:#eab308;fill-opacity:1"
         id="path9"
         cx="543.51807"
         cy="1284.1031"
         r="24.94519" />
      <circle
         style="fill:#eab308;fill-opacity:1"
         id="path10"
         cx="196.09183"
         cy="1234.7357"
         r="42.921352" />
    </g>
    <g
       inkscape:groupmode="layer"
       id="layer3"
       inkscape:label="Image 3"
       style="display:inline"
       transform="matrix(1.06667,0,0,1.06667,-185.64,-36.3754)">
      <path
         style="fill:#ffb380;fill-opacity:1"
         d="m 856.08113,1877.9681 43.06835,7.2025 c 0,0 87.60661,-42.6273 99.95381,-41.3044 12.34731,1.3229 22.93061,15.434 22.93061,15.434 l -122.14947,43.8033 -37.1887,4.9977 z"
         id="path12" />
      <path
         style="fill:#ffb380;fill-opacity:1"
         d="m 1018.1003,1619.616 10.6018,-12.6804 -1.4552,-22.4507 102.4832,-84.19 c 0,0 17.0458,-7.0678 9.3544,2.7024 -7.6914,9.7702 -56.1267,83.7742 -56.1267,83.7742 l -6.0284,48.4353 c 0,0 -12.2647,13.3041 -34.7154,3.7417 -22.4506,-9.5623 -24.1137,-19.3325 -24.1137,-19.3325 z"
         id="path13" />
      <path
         style="fill:#ffb380;fill-opacity:1"
         d="m 710.5601,1501.0833 c 0,0 -15.87502,8.2315 -20.57873,12.3472 -4.70371,4.1158 -6.99035,32.0711 17.11617,39.1267 24.10651,7.0555 74.6123,8.6054 94.0151,-8.4455 19.4028,-17.051 -10.0015,-35.3849 -10.0015,-35.3849 0,0 -7.64353,-51.7408 -4.70371,-54.0926 2.93982,-2.3519 -77.61122,-71.1436 -77.61122,-71.1436 l 0.58797,25.8704 z"
         id="path14"
         sodipodi:nodetypes="cssscsccc" />
      <path
         style="fill:#ffb380;fill-opacity:1"
         d="m 705.85639,1387.0183 c 0,0 36.45376,72.3196 81.72697,69.3798 45.2732,-2.9399 59.38434,-40.5695 60.56026,-59.3844 1.17593,-18.8148 21.75466,-87.0186 -14.69909,-127.5881 -36.45375,-40.5695 -65.85194,-46.4492 -96.42606,-31.1621 -30.57411,15.2871 -58.79637,36.4538 -57.03248,82.9029 1.76389,46.4491 25.8704,65.8519 25.8704,65.8519 z"
         id="path15"
         sodipodi:nodetypes="csssssc" />
    </g>
    <g
       inkscape:groupmode="layer"
       id="layer4"
       inkscape:label="Image 4"
       transform="matrix(1.06667,0,0,1.06667,-185.64,-36.3754)">
      <path
         style="fill:#552200;fill-opacity:1"
         d="m 834.62046,1271.1895 20.57873,42.9213 -1.76389,61.1483 1.06617,10.08 3.5339,-13.512 2.28664,7.0678 13.71986,-24.1136 c 0,0 -5.40479,-81.4877 -32.42875,-105.1856 -27.02396,-23.6979 -43.56824,-33.6827 -75.87495,-33.2602 -46.14887,0.6036 -77.40283,34.7477 -138.86156,105.6013 -65.27325,75.2513 -151.33415,231.1587 -124.72595,293.5217 26.60821,62.363 37.41779,54.8794 37.41779,54.8794 l 152.16566,-158.8177 19.41396,-11.1719 -1.46991,-112.889 c 0,0 -9.11344,-5.2181 -13.74366,-13.5966 -1.67344,-3.0282 -8.34798,-17.0859 -2.42534,-29.8393 2.22678,-4.7949 11.17131,-14.9195 18.52085,-4.3362 7.34955,10.5834 13.74365,21.6812 14.40512,21.4607 6.23142,-2.0777 14.84608,-6.9085 16.31599,-11.3183 1.46991,-4.4097 31.61028,-30.7232 52.91674,-37.6297 14.2515,-4.6196 27.4873,-20.7257 31.01509,-31.015 3.52778,-10.2894 7.93751,-9.9954 7.93751,-9.9954 z"
         id="path16"
         sodipodi:nodetypes="cccccccssssccccsssssssc" />
    </g>
    <g
       inkscape:groupmode="layer"
       id="layer5"
       inkscape:label="BLAU"
       transform="matrix(1.06667,0,0,1.06667,-185.64,-36.3754)">
      <path
         style="fill:#fefffa;fill-opacity:1"
         d="m 471.38493,2165.9157 c 0,0 -81.13454,13.6154 -86.95509,22.762 -5.82054,9.1465 -21.5817,10.3746 -16.60565,31.9488 5.71102,24.7607 37.40048,25.9957 42.38952,24.3327 4.98904,-1.663 86.11641,-24.1641 86.11641,-24.1641 z"
         id="path20"
         sodipodi:nodetypes="cssscc" />
      <path
         style="fill:#fefffa;fill-opacity:1;stroke-width:1.0791"
         d="m 922.53998,2160.4255 c 0,0 103.06432,-6.6295 111.28762,1.243 8.2233,7.8724 26.5208,5.9875 24.448,28.2299 -2.3791,25.5276 -38.5433,32.9685 -44.55,32.3091 -6.0068,-0.6594 -99.97818,-14.5489 -99.97818,-14.5489 z"
         id="path21"
         sodipodi:nodetypes="cssscc" />
      <path
         style="fill:#426880;fill-opacity:1;stroke-width:1.75758"
         d="m 712.47903,2023.0554 c 0,0 -240.70706,126.17 -245.99155,145.3679 -5.28448,19.1977 -12.05188,38.6481 5.04643,46.6218 37.14267,17.3215 85.15868,-11.457 251.97481,-58.2948 18.86275,-5.2961 -11.02969,-133.6949 -11.02969,-133.6949 z"
         id="path17"
         sodipodi:nodetypes="csssc" />
      <path
         style="fill:#426880;fill-opacity:1;stroke-width:1.04381"
         d="m 876.91831,2126.359 c 0,0 52.15245,28.8101 55.35549,39.9815 3.20303,11.1713 5.87938,36.5174 -4.48426,41.1574 -22.51293,10.0795 -193.83399,-20.3697 -287.88911,-72.3195 -10.36521,-5.7251 237.01788,-8.8194 237.01788,-8.8194 z"
         id="path18"
         sodipodi:nodetypes="csssc" />
      <path
         style="fill:#669bbc;fill-opacity:1"
         d="m 344.84667,1978.5098 c -66.6917,-61.5363 -25.8704,-181.0928 102.3057,-136.4076 30.3279,10.573 228.7938,153.2317 245.44675,170.8539 16.65295,17.6222 32.51142,1.1403 50.88692,-12.1036 18.3755,-13.2439 179.82427,-121.4691 246.94485,-138.7595 67.12061,-17.2905 156.14901,31.4335 96.42611,110.5372 -59.7229,79.1036 -254.00043,179.9169 -254.00043,179.9169 0,0 -30.3789,11.4741 -88.539,11.9733 -58.1601,0.4992 -57.43029,-5.5433 -105.7031,-19.516 -48.27281,-13.9727 -201.83694,-81.6702 -293.7678,-166.4946 z"
         id="path3"
         sodipodi:nodetypes="zszzzzczzz" />
    </g>
    <g
       inkscape:groupmode="layer"
       id="layer1"
       inkscape:label="Image 1"
       transform="matrix(1.06667,0,0,1.06667,-185.64,-36.3754)">
      <path
         style="fill:#eab308;fill-opacity:1"
         d="m 694.62348,1510.2981 c 0,0 -79.53114,9.028 -119.6926,63.3964 -36.32409,49.1737 -50.33488,168.7536 -48.66653,220.9536 0.3453,10.8041 -4.23968,32.0308 10.80958,81.9034 23.11886,76.6149 326.27666,35.3919 326.05569,31.8177 -0.62063,-10.0385 -10.30246,-51.182 -9.34401,-52.8028 0.98399,-1.664 -210.07099,-14.7697 -210.48675,-18.7194 -2.26487,-21.5163 -11.36546,-207.3436 -19.68053,-213.9957 -8.31506,-6.652 71.00515,-112.5532 71.00515,-112.5532 z"
         id="path1"
         sodipodi:nodetypes="csssssssc" />
      <ellipse
         style="fill:#eab308;fill-opacity:1"
         id="path6"
         ry="74.4198"
         rx="78.577347"
         cy="1390.536"
         cx="1061.3386" />
      <path
         style="fill:#fefffa;fill-opacity:1"
         d="m 1028.9425,1584.2802 -11.4653,8.2315 -5.5856,-7.9375 122.2964,-97.896 6.7616,7.0556 z"
         id="path22" />
    </g>
  </g>
  <metadata
     id="metadata22">
    <rdf:RDF>
      <cc:Work
         rdf:about="">
        <cc:license
           rdf:resource="http://creativecommons.org/licenses/by/4.0/" />
        <dc:creator>
          <cc:Agent>
            <dc:title>Joseph Hurtado</dc:title>
          </cc:Agent>
        </dc:creator>
      </cc:Work>
      <cc:License
         rdf:about="http://creativecommons.org/licenses/by/4.0/">
        <cc:permits
           rdf:resource="http://creativecommons.org/ns#Reproduction" />
        <cc:permits
           rdf:resource="http://creativecommons.org/ns#Distribution" />
        <cc:requires
           rdf:resource="http://creativecommons.org/ns#Notice" />
        <cc:requires
           rdf:resource="http://creativecommons.org/ns#Attribution" />
        <cc:permits
           rdf:resource="http://creativecommons.org/ns#DerivativeWorks" />
      </cc:License>
    </rdf:RDF>
  </metadata>
</svg>
