<svg version="1.2" xmlns="http://www.w3.org/2000/svg" viewBox="0 0 1540 1540" width="1540" height="1540"><style></style><path fill-rule="evenodd" d="m662.5 296.5v549c0 165-97.4 265.5-256.3 265.5-159 0-256.4-100.5-256.4-265.5v-549c0-165 97.4-265.5 256.4-265.5 158.9 0 256.3 100.5 256.3 265.5zm-353.8 1.5v546c0 78 34.5 120 97.5 120 62.9 0 97.4-42 97.4-120v-546c0-78-34.5-120-97.4-120-63 0-97.5 42-97.5 120zm1004.6-1.5v549c0 165-97.5 265.5-256.4 265.5-159 0-256.4-100.5-256.4-265.5v-549c0-165 97.4-265.5 256.4-265.5 158.9 0 256.4 100.5 256.4 265.5zm-353.9 1.5v546c0 78 34.5 120 97.5 120 62.9 0 97.4-42 97.4-120v-546c0-78-34.5-120-97.4-120-63 0-97.5 42-97.5 120z"/><path  d="m825.4 1074.9h-60.7v309.4c0 29.2-13.2 40.1-34.4 40.1-21.2 0-34.4-10.9-34.4-40.1v-309.4h-58.4v311.1c0 63.1 36.1 95.7 93.4 95.7 58.4 0 94.5-32.6 94.5-95.7z"/></svg>